Coordinates
version=1
nRows=21
nColumns=12
inDegrees=yes

Units are S.I. units (second, meters, Newtons, ...)
Angles are in degrees

endheader
time	SC_y	SC_z	SC_x	AC_y	AC_z	AC_x	GH_y	GH_z	GH_yy	EL_x	PS_y
       0.0              -20.79          37.39          5.797           66.2         -9.826         -0.432          33.32          73.38         -92.17          82.76          139.3
   0.01076              -20.78          37.39          5.808          66.19         -9.826        -0.4303          33.34          73.37         -92.17          82.77          139.3
   0.02153              -20.78          37.38           5.82          66.19         -9.826        -0.4285          33.37          73.37         -92.16          82.77          139.3
   0.03229              -20.78          37.38          5.832          66.19         -9.826        -0.4265          33.39          73.37         -92.15          82.78          139.3
   0.04305              -20.78          37.38          5.846          66.19         -9.826        -0.4244          33.41          73.36         -92.14          82.78          139.3
   0.05382              -20.78          37.38           5.86          66.19         -9.826        -0.4222          33.44          73.36         -92.14          82.78          139.2
   0.06458              -20.78          37.37          5.875          66.18         -9.826        -0.4198          33.47          73.35         -92.13          82.79          139.2
   0.07534              -20.77          37.37          5.892          66.18         -9.826        -0.4172           33.5          73.34         -92.12          82.79          139.2
    0.0861              -20.77          37.37          5.909          66.18         -9.826        -0.4145          33.53          73.34         -92.11           82.8          139.2
   0.09687              -20.77          37.36          5.928          66.18         -9.826        -0.4116          33.56          73.33          -92.1          82.81          139.1
    0.1076              -20.77          37.36          5.948          66.17         -9.826        -0.4084           33.6          73.32         -92.08          82.81          139.1
    0.1184              -20.77          37.36           5.97          66.17         -9.826         -0.405          33.64          73.32         -92.07          82.82          139.0
    0.1292              -20.76          37.35          5.993          66.17         -9.826        -0.4014          33.68          73.31         -92.06          82.83          139.0
    0.1399              -20.76          37.35          6.018          66.17         -9.826        -0.3974          33.73           73.3         -92.04          82.83          139.0
    0.1507              -20.76          37.34          6.046          66.16         -9.826        -0.3932          33.78          73.29         -92.03          82.84          138.9
    0.1614              -20.75          37.34          6.075          66.16         -9.826        -0.3886          33.83          73.28         -92.01          82.85          138.9
    0.1722              -20.75          37.33          6.107          66.15         -9.826        -0.3835          33.89          73.26         -91.99          82.86          138.8
     0.183              -20.75          37.33          6.142          66.15         -9.826        -0.3781          33.96          73.25         -91.97          82.87          138.7
    0.1937              -20.74          37.32          6.181          66.14         -9.826        -0.3721          34.03          73.24         -91.95          82.88          138.7
    0.2045              -20.74          37.31          6.222          66.14         -9.826        -0.3655           34.1          73.22         -91.93           82.9          138.6
    0.2153              -20.73           37.3          6.268          66.13         -9.826        -0.3583          34.19          73.21          -91.9          82.91          138.5
